<svg width="21" height="22" viewBox="0 0 21 22" fill="none" xmlns="http://www.w3.org/2000/svg">
<g id="Group">
<path id="Vector" d="M0.128906 4.6786C0.128906 3.68148 0.525012 2.7252 1.23008 2.02012C1.93516 1.31505 2.89144 0.918945 3.88856 0.918945H17.192C18.1891 0.918945 19.1454 1.31505 19.8504 2.02012C20.5555 2.7252 20.9516 3.68148 20.9516 4.6786V17.982C20.9516 18.9791 20.5555 19.9354 19.8504 20.6405C19.1454 21.3456 18.1891 21.7417 17.192 21.7417H3.88856C2.89144 21.7417 1.93516 21.3456 1.23008 20.6405C0.525012 19.9354 0.128906 18.9791 0.128906 17.982V4.6786ZM11.4079 6.41383C11.4079 6.18372 11.3165 5.96304 11.1538 5.80033C10.9911 5.63762 10.7704 5.54622 10.5403 5.54622C10.3102 5.54622 10.0895 5.63762 9.92677 5.80033C9.76406 5.96304 9.67265 6.18372 9.67265 6.41383V10.4627H5.62379C5.39368 10.4627 5.173 10.5541 5.01029 10.7168C4.84759 10.8795 4.75618 11.1002 4.75618 11.3303C4.75618 11.5604 4.84759 11.7811 5.01029 11.9438C5.173 12.1065 5.39368 12.1979 5.62379 12.1979H9.67265V16.2468C9.67265 16.4769 9.76406 16.6976 9.92677 16.8603C10.0895 17.023 10.3102 17.1144 10.5403 17.1144C10.7704 17.1144 10.9911 17.023 11.1538 16.8603C11.3165 16.6976 11.4079 16.4769 11.4079 16.2468V12.1979H15.4567C15.6868 12.1979 15.9075 12.1065 16.0702 11.9438C16.2329 11.7811 16.3244 11.5604 16.3244 11.3303C16.3244 11.1002 16.2329 10.8795 16.0702 10.7168C15.9075 10.5541 15.6868 10.4627 15.4567 10.4627H11.4079V6.41383Z" fill="#009AAD"/>
</g>
</svg>
