<svg width="21" height="22" viewBox="0 0 21 22" fill="none" xmlns="http://www.w3.org/2000/svg">
<path d="M18.5091 21.7417H2.31364C1.70002 21.7417 1.11154 21.4979 0.677648 21.064C0.243757 20.6301 0 20.0416 0 19.428V3.23258C0 2.61897 0.243757 2.03048 0.677648 1.59659C1.11154 1.1627 1.70002 0.918945 2.31364 0.918945H18.5091C19.1227 0.918945 19.7112 1.1627 20.1451 1.59659C20.579 2.03048 20.8227 2.61897 20.8227 3.23258V19.428C20.8227 20.0416 20.579 20.6301 20.1451 21.064C19.7112 21.4979 19.1227 21.7417 18.5091 21.7417ZM2.31364 3.23258V19.428H18.5091V3.23258H2.31364ZM16.1954 12.4871H4.62727V10.1735H16.1954V12.4871Z" fill="#009AAD"/>
</svg>
